<?xml version="1.0" standalone="no"?>
<!DOCTYPE svg PUBLIC "-//W3C//DTD SVG 20010904//EN"
 "http://www.w3.org/TR/2001/REC-SVG-20010904/DTD/svg10.dtd">
<svg version="1.0" xmlns="http://www.w3.org/2000/svg"
 width="1124.000000pt" height="1044.000000pt" viewBox="0 0 1124.000000 1044.000000"
 preserveAspectRatio="xMidYMid meet">

<g transform="translate(0.000000,1044.000000) scale(0.100000,-0.100000)"
fill="#000000" stroke="none">
<path d="M8576 10140 c-39 -12 -75 -47 -97 -95 -17 -38 -19 -79 -19 -665 l0
-625 24 -50 c13 -27 32 -57 42 -66 44 -38 335 -151 350 -136 2 2 -29 14 -70
25 -40 12 -95 36 -121 54 -53 36 -107 108 -126 166 -9 26 -13 202 -16 602 l-4
565 31 82 c30 78 50 104 106 140 16 10 13 12 -26 12 -25 -1 -58 -5 -74 -9z"/>
<path d="M10985 9650 c-22 -11 -45 -19 -52 -20 -26 0 -19 -19 37 -104 66 -98
94 -164 110 -258 7 -42 10 -268 8 -683 -3 -613 -3 -621 -25 -667 -12 -26 -34
-65 -50 -85 -26 -35 -23 -34 36 17 102 87 129 119 153 179 22 56 22 57 19 646
-3 700 -6 752 -55 849 -40 81 -95 146 -122 146 -11 -1 -37 -9 -59 -20z"/>
<path d="M9573 9571 c31 -37 31 -38 12 -71 -18 -32 -19 -51 -2 -75 13 -17 15
-17 45 5 26 19 37 21 79 15 26 -4 46 -5 43 -2 -3 2 -36 32 -74 66 -38 34 -83
69 -100 78 l-30 16 27 -32z"/>
<path d="M10099 9436 c12 -15 11 -21 -7 -46 -12 -16 -22 -34 -22 -40 0 -39
-70 -170 -132 -247 -39 -49 -72 -93 -75 -100 -3 -7 -30 -31 -61 -55 -32 -24
-59 -46 -62 -50 -8 -10 -128 -37 -134 -30 -7 6 -8 -3 -10 -90 -1 -52 2 -68 12
-68 9 0 12 -7 9 -20 -3 -11 0 -26 6 -33 19 -20 18 -37 -1 -37 -16 -1 -16 -1 0
-11 14 -8 17 -20 14 -52 -7 -82 -37 -64 -233 147 -82 87 -107 104 -58 40 14
-18 25 -36 25 -39 0 -14 173 -215 208 -243 81 -64 125 -74 202 -47 31 11 52
12 82 6 49 -11 142 14 200 54 20 14 40 25 43 25 9 0 171 107 200 132 13 11 22
26 18 31 -3 6 -1 7 4 4 13 -8 62 40 75 73 16 41 21 205 8 277 -6 38 -28 101
-48 141 -47 95 -181 245 -252 282 -23 12 -24 12 -11 -4z"/>
<path d="M8891 8496 c2 -2 76 -25 164 -50 88 -26 174 -52 190 -58 41 -15 75
-47 75 -70 0 -11 15 -40 33 -66 17 -25 98 -177 178 -336 144 -287 147 -291
175 -288 16 2 37 11 47 19 14 14 15 19 4 32 -7 9 -60 113 -117 231 -117 243
-168 326 -238 392 -69 64 -121 88 -323 147 -170 49 -197 56 -188 47z"/>
<path d="M3828 8316 c-9 -16 -7 -18 7 -13 9 4 1129 7 2488 8 1580 0 2461 4
2442 10 -19 6 -963 11 -2478 12 -2398 2 -2449 2 -2459 -17z"/>
<path d="M10105 8096 c-34 -17 -65 -40 -65 -49 0 -4 16 4 35 17 56 38 104 42
172 13 32 -14 110 -37 173 -51 63 -14 166 -37 228 -52 121 -28 230 -30 254 -5
11 10 8 10 -15 2 -57 -22 -120 -11 -362 60 -262 78 -362 93 -420 65z"/>
<path d="M10132 7893 c-6 -2 -52 -62 -100 -131 -147 -211 -197 -288 -176 -272
62 48 132 113 149 140 20 29 20 29 27 7 5 -20 6 -20 7 6 1 17 30 70 74 135 39
59 74 110 75 115 4 8 -36 8 -56 0z"/>
<path d="M7096 7691 c-5 -7 -1 -9 8 -5 10 4 16 1 16 -9 0 -8 9 -17 20 -20 11
-3 18 -1 14 4 -3 5 2 9 12 9 9 0 36 -20 61 -45 24 -25 47 -45 52 -45 4 0 13
-11 20 -24 7 -13 24 -29 37 -35 13 -6 24 -17 24 -26 0 -13 11 -19 31 -17 3 1
6 -4 7 -11 2 -21 20 -88 25 -94 3 -3 2 -16 -3 -29 -7 -17 -6 -24 2 -24 6 0 9
-3 6 -6 -4 -3 -2 -19 2 -36 5 -16 6 -48 1 -71 l-7 -42 135 -1 c154 -2 309 -25
393 -59 48 -19 58 -20 62 -8 8 21 7 25 -5 18 -7 -5 -9 6 -7 31 2 26 7 38 16
36 8 -1 11 2 7 9 -4 6 -11 45 -15 87 -10 103 -15 119 -47 165 -42 60 -61 98
-68 139 -7 39 -9 41 -115 67 -137 35 -207 42 -436 48 -173 4 -243 2 -248 -6z"/>
<path d="M6772 7624 c-7 -14 -8 -23 -2 -19 15 9 32 45 22 45 -5 0 -14 -12 -20
-26z"/>
<path d="M6685 7625 c-5 -2 -61 -20 -124 -40 -119 -39 -325 -127 -352 -151 -8
-8 -21 -14 -28 -14 -6 0 -14 -6 -17 -14 -3 -8 -12 -12 -20 -9 -10 4 -12 0 -7
-12 5 -15 2 -17 -15 -13 -15 4 -22 2 -22 -8 0 -8 -5 -14 -11 -14 -5 0 -7 6 -3
13 5 9 4 9 -6 0 -7 -7 -9 -17 -4 -25 5 -7 7 -21 6 -30 -2 -10 3 -19 10 -20 7
0 18 -2 23 -3 6 -2 17 -3 25 -4 12 -1 11 -4 -4 -13 -44 -25 -208 -180 -169
-160 32 17 35 15 17 -13 -19 -29 -11 -48 9 -21 11 15 13 15 15 -9 1 -15 -4
-28 -13 -31 -8 -4 -13 -10 -10 -14 6 -10 -34 -50 -49 -50 -6 0 -5 -4 2 -9 11
-6 6 -14 -20 -31 -37 -26 -68 -60 -67 -75 0 -5 4 -2 10 8 5 9 15 17 20 17 6 0
7 -4 4 -10 -13 -20 27 -9 63 18 l36 27 -34 -48 c-19 -27 -38 -51 -42 -53 -5
-3 -8 -10 -8 -16 0 -6 7 -5 18 3 15 12 -11 -18 -122 -141 -17 -19 -36 -44 -42
-55 -6 -11 -25 -46 -44 -78 -31 -56 -32 -59 -14 -72 17 -12 17 -14 3 -20 -17
-7 -44 -89 -34 -105 3 -5 1 -11 -5 -15 -6 -4 -8 -10 -5 -15 3 -5 1 -11 -5 -15
-7 -4 -7 -12 0 -24 5 -10 7 -21 4 -23 -6 -6 -16 -164 -15 -221 1 -31 -2 -37
-16 -35 -12 2 -18 -4 -19 -17 -1 -11 -2 -24 -3 -29 -1 -5 -9 -2 -18 5 -16 12
-17 12 -5 -2 15 -20 11 -57 -9 -70 -12 -7 -12 -9 0 -9 20 0 3 -15 -17 -15 -9
0 -19 -11 -23 -25 l-7 -25 -2 25 c-2 18 -4 20 -7 7 -2 -9 -8 -15 -12 -13 -4 3
-8 -4 -8 -15 -1 -11 1 -18 5 -15 4 2 15 -5 25 -14 18 -17 17 -18 -20 -5 -39
14 -72 3 -44 -14 11 -7 10 -11 -5 -20 -17 -9 -17 -10 -1 -11 9 0 17 -5 17 -11
0 -5 -5 -7 -10 -4 -14 9 -52 -4 -45 -16 4 -5 18 -9 33 -10 15 0 21 -3 14 -6
-6 -2 -10 -8 -8 -12 3 -4 -8 -6 -23 -3 -28 4 -84 -18 -96 -38 -20 -32 96 -185
210 -276 84 -67 243 -155 360 -199 98 -36 279 -81 415 -101 148 -22 526 -25
650 -5 289 46 477 114 630 230 170 128 187 268 40 328 -89 36 -246 25 -445
-31 -220 -63 -472 -78 -630 -37 -190 48 -350 154 -406 268 -20 40 -24 62 -23
138 1 103 19 182 72 305 85 199 190 351 361 520 137 136 150 163 152 307 1 91
-21 193 -42 193 -5 0 -9 6 -9 13 0 7 -9 23 -20 35 -31 33 -25 67 18 110 73 72
109 140 82 157 -5 3 -10 -2 -10 -14 0 -11 -4 -22 -8 -25 -5 -3 -7 17 -4 44 5
51 -3 58 -43 45z m25 -121 c0 -8 -5 -12 -10 -9 -6 4 -8 11 -5 16 9 14 15 11
15 -7z m-547 -149 c-3 -9 -8 -14 -10 -11 -3 3 -2 9 2 15 9 16 15 13 8 -4z
m-63 -180 c0 -2 -10 -10 -22 -16 -21 -11 -22 -11 -9 4 13 16 31 23 31 12z
m-76 -46 c-4 -7 0 -9 14 -5 20 7 20 6 6 -23 -15 -31 -36 -43 -31 -18 1 6 -4
11 -11 9 -9 -2 -11 2 -5 10 4 7 8 16 9 21 3 16 4 17 15 17 5 0 7 -5 3 -11z
m-374 -1233 c0 -2 -9 -6 -20 -9 -11 -3 -18 -1 -14 4 5 9 34 13 34 5z m-93
-128 c-3 -7 -5 -2 -5 12 0 14 2 19 5 13 2 -7 2 -19 0 -25z m8 -38 c13 -5 14
-9 5 -9 -8 0 -24 4 -35 9 -13 5 -14 9 -5 9 8 0 24 -4 35 -9z m-15 -44 c0 -2
-11 -6 -25 -8 -13 -3 -22 -1 -19 3 5 9 44 13 44 5z m7 -32 c-3 -3 -12 -4 -19
-1 -8 3 -5 6 6 6 11 1 17 -2 13 -5z m-178 -56 c14 5 14 4 -1 -11 -9 -9 -20
-17 -24 -17 -4 0 -4 3 -1 7 4 3 1 13 -5 22 -10 13 -10 14 1 4 7 -6 21 -9 30
-5z m238 6 c-3 -3 -12 -4 -19 -1 -8 3 -5 6 6 6 11 1 17 -2 13 -5z m1490 -96
c-3 -8 -6 -5 -6 6 -1 11 2 17 5 13 3 -3 4 -12 1 -19z"/>
<path d="M7098 7479 c-34 -9 -191 -93 -235 -125 -17 -13 -36 -24 -41 -24 -6 0
-12 -7 -16 -15 -7 -19 30 -40 47 -27 14 11 47 12 47 2 0 -4 -7 -13 -15 -20 -8
-7 -15 -26 -15 -41 0 -22 6 -32 25 -39 14 -5 25 -14 25 -19 0 -5 9 -7 19 -4
15 4 20 -1 23 -19 2 -17 13 -26 43 -36 37 -12 44 -11 86 10 34 17 45 27 41 40
-2 10 1 18 7 18 6 0 11 -8 11 -17 1 -13 8 -9 30 17 16 19 41 47 55 62 14 14
21 29 16 32 -5 3 -7 14 -4 24 3 13 -7 27 -33 47 -40 30 -93 35 -164 15 -63
-18 -52 7 17 40 73 35 107 40 165 24 29 -7 53 -12 55 -10 2 1 -8 13 -21 25
-29 27 -129 51 -168 40z m61 -255 c-14 -18 -24 -11 -15 11 3 9 11 13 16 10 8
-5 7 -11 -1 -21z m-135 -32 c-34 -4 -38 1 -22 27 l13 21 17 -22 c17 -22 16
-23 -8 -26z"/>
<path d="M5920 7150 c-9 -6 -10 -10 -3 -10 6 0 15 5 18 10 8 12 4 12 -15 0z"/>
<path d="M7427 7042 c-28 -7 -55 -48 -102 -152 -10 -23 -14 -27 -11 -11 7 37
-10 11 -22 -34 -27 -100 -56 -172 -76 -190 -29 -27 -58 -73 -52 -84 3 -5 -4
-20 -15 -35 -11 -14 -18 -30 -15 -34 3 -5 -10 -27 -29 -50 -19 -22 -35 -43
-35 -47 0 -12 -28 -35 -55 -45 -38 -14 -88 -12 -121 5 -16 8 -37 15 -46 15
-22 0 -39 32 -35 62 3 16 13 24 33 29 55 11 114 51 114 76 0 28 82 93 116 93
34 0 39 18 10 32 -19 8 -33 8 -49 1 -16 -8 -51 -7 -116 1 l-94 11 -4 35 c-3
19 -5 40 -6 47 0 8 -6 9 -19 2 -15 -8 -16 -13 -6 -29 10 -15 9 -23 -7 -40 -19
-21 -31 -17 -37 13 -4 24 -163 -118 -250 -224 -209 -255 -291 -543 -202 -716
61 -119 179 -183 357 -191 175 -8 269 24 478 160 l87 57 23 -26 c145 -155 580
-107 902 99 49 31 61 62 34 90 -7 7 -16 22 -20 32 -4 10 -10 16 -13 13 -3 -3
-22 6 -41 19 -20 13 -41 24 -48 24 -7 0 -20 11 -29 25 -9 14 -21 23 -25 20
-14 -8 -22 56 -10 71 6 8 8 14 4 14 -4 0 -1 7 6 17 13 15 12 15 -8 4 -26 -13
-26 -13 -23 48 l2 44 -39 -30 c-47 -37 -83 -56 -90 -49 -3 3 16 31 43 63 27
31 48 61 46 66 -1 5 2 6 7 3 17 -11 29 25 20 63 -5 20 -9 53 -9 74 0 20 -4 37
-9 37 -9 0 -22 100 -26 213 -3 50 2 80 15 110 12 26 21 36 24 27 2 -8 16 -51
30 -95 37 -114 60 -138 28 -30 -3 11 -7 27 -8 35 -1 8 -13 46 -25 84 -21 61
-29 72 -74 102 -90 61 -153 77 -310 80 -77 2 -153 0 -168 -4z m-487 -452 c0
-5 -5 -10 -11 -10 -5 0 -7 5 -4 10 3 6 8 10 11 10 2 0 4 -4 4 -10z m670 -76
c47 -55 -205 -307 -410 -411 -59 -30 -86 -38 -130 -38 -54 0 -55 1 -58 30 -8
84 189 270 398 375 121 61 176 73 200 44z m-233 -626 c-3 -8 -6 -5 -6 6 -1 11
2 17 5 13 3 -3 4 -12 1 -19z m-250 -90 c-3 -8 -6 -5 -6 6 -1 11 2 17 5 13 3
-3 4 -12 1 -19z"/>
<path d="M5946 7025 c-11 -8 -17 -17 -14 -20 2 -3 13 4 23 15 21 23 18 25 -9
5z"/>
<path d="M6935 6840 c-3 -5 -19 -10 -34 -10 -16 0 -34 -6 -40 -14 -9 -11 -6
-15 15 -20 30 -8 74 16 74 39 0 17 -6 19 -15 5z"/>
<path d="M5852 6791 c-43 -40 -41 -49 3 -14 19 15 35 31 35 36 0 11 -3 9 -38
-22z"/>
<path d="M5451 6733 c-10 -12 -8 -13 16 -7 36 9 38 10 16 16 -10 3 -24 -1 -32
-9z"/>
<path d="M8041 6730 c0 -8 4 -24 9 -35 5 -13 9 -14 9 -5 0 8 -4 24 -9 35 -5
13 -9 14 -9 5z"/>
<path d="M5450 6710 c-13 -9 -13 -10 0 -10 8 0 22 5 30 10 13 9 13 10 0 10 -8
0 -22 -5 -30 -10z"/>
<path d="M5386 6665 c-3 -9 0 -15 9 -15 8 0 15 7 15 15 0 8 -4 15 -9 15 -5 0
-11 -7 -15 -15z"/>
<path d="M5365 6620 c-10 -11 -16 -22 -13 -25 3 -3 13 6 22 20 20 30 16 32 -9
5z"/>
<path d="M5400 6619 c0 -5 5 -7 10 -4 6 3 10 8 10 11 0 2 -4 4 -10 4 -5 0 -10
-5 -10 -11z"/>
<path d="M5462 6623 c-6 -2 -9 -9 -6 -15 4 -6 10 -5 15 3 7 11 9 11 9 -1 0
-12 2 -12 9 -1 5 8 11 9 15 3 3 -5 -12 -17 -34 -26 -22 -9 -40 -18 -40 -20 0
-4 7 -5 61 -7 24 0 36 8 26 17 -4 4 -15 1 -24 -7 -10 -8 -8 -3 4 12 18 19 20
28 11 37 -13 13 -24 14 -46 5z"/>
<path d="M5430 6600 c0 -5 5 -10 11 -10 5 0 7 5 4 10 -3 6 -8 10 -11 10 -2 0
-4 -4 -4 -10z"/>
<path d="M8071 6594 c0 -11 3 -14 6 -6 3 7 2 16 -1 19 -3 4 -6 -2 -5 -13z"/>
<path d="M5695 6570 c-3 -5 -1 -10 4 -10 6 0 11 5 11 10 0 6 -2 10 -4 10 -3 0
-8 -4 -11 -10z"/>
<path d="M5356 6548 c3 -4 0 -8 -7 -8 -7 0 -10 -2 -8 -5 7 -6 49 6 49 14 0 4
-9 7 -19 7 -11 0 -17 -4 -15 -8z"/>
<path d="M5311 6507 c-5 -13 -12 -50 -15 -83 -4 -32 -9 -74 -12 -91 -4 -18 -4
-33 -1 -33 9 0 37 106 37 142 0 42 11 59 38 61 12 1 22 5 22 9 0 4 -14 5 -32
1 -22 -4 -29 -3 -24 5 4 7 5 12 1 12 -3 0 -9 -10 -14 -23z"/>
<path d="M5451 6526 c2 -2 18 -6 34 -10 22 -5 26 -4 15 4 -14 9 -59 15 -49 6z"/>
<path d="M5449 6508 c-6 -21 -5 -38 2 -38 5 0 9 -7 9 -15 0 -8 -4 -15 -10 -15
-5 0 -7 -7 -4 -15 4 -8 11 -15 16 -15 6 0 7 7 4 15 -4 10 3 19 18 25 19 7 23
14 19 31 l-6 21 -12 -22 c-8 -15 -14 -19 -19 -11 -4 7 -2 18 4 26 10 12 9 15
-4 15 -9 0 -16 -1 -17 -2z"/>
<path d="M5375 6450 c3 -5 8 -10 11 -10 2 0 4 5 4 10 0 6 -5 10 -11 10 -5 0
-7 -4 -4 -10z"/>
<path d="M5490 6429 c0 -5 5 -7 10 -4 6 3 10 8 10 11 0 2 -4 4 -10 4 -5 0 -10
-5 -10 -11z"/>
<path d="M5476 6394 c-22 -21 -20 -27 4 -14 11 6 20 15 20 20 0 14 -6 12 -24
-6z"/>
<path d="M5390 6390 c8 -5 20 -10 25 -10 6 0 3 5 -5 10 -8 5 -19 10 -25 10 -5
0 -3 -5 5 -10z"/>
<path d="M5430 6390 c0 -5 4 -10 9 -10 6 0 13 5 16 10 3 6 -1 10 -9 10 -9 0
-16 -4 -16 -10z"/>
<path d="M5386 6354 c-3 -8 -9 -13 -13 -11 -5 3 -16 -6 -26 -19 -22 -29 -9
-32 16 -4 9 11 24 20 32 20 8 0 15 7 15 15 0 20 -16 19 -24 -1z"/>
<path d="M5232 6239 c-12 -68 -16 -179 -6 -179 3 0 12 7 20 15 17 17 59 21 49
5 -4 -6 6 -10 22 -9 22 0 24 2 10 7 -16 7 -15 10 9 31 20 18 34 22 60 18 23
-4 34 -1 38 9 3 9 1 12 -4 9 -6 -3 -10 1 -10 10 0 14 -9 16 -52 15 -94 -4 -94
-4 -106 43 -7 23 -13 53 -15 67 -2 15 -8 -1 -15 -41z"/>
<path d="M2551 6179 c-118 -59 -178 -171 -169 -316 9 -130 45 -118 57 19 5 49
17 105 31 135 24 57 86 121 143 148 39 18 50 45 19 45 -11 0 -47 -14 -81 -31z
m-61 -73 c0 -2 -8 -10 -17 -17 -16 -13 -17 -12 -4 4 13 16 21 21 21 13z m-63
-263 c-3 -10 -5 -4 -5 12 0 17 2 24 5 18 2 -7 2 -21 0 -30z"/>
<path d="M5578 6089 c-10 -5 -18 -18 -18 -27 0 -10 -7 -28 -16 -40 -8 -12 -11
-22 -6 -22 5 0 14 11 22 24 7 14 18 22 26 19 8 -3 14 1 14 10 0 9 3 22 6 31 7
18 -3 20 -28 5z"/>
<path d="M5556 5983 c-6 -14 -5 -15 5 -6 7 7 10 15 7 18 -3 3 -9 -2 -12 -12z"/>
<path d="M5526 5943 c-6 -14 -5 -15 5 -6 7 7 10 15 7 18 -3 3 -9 -2 -12 -12z"/>
<path d="M8210 5935 c-8 -9 -8 -15 -2 -15 12 0 26 19 19 26 -2 2 -10 -2 -17
-11z"/>
<path d="M5490 5920 c-6 -11 -8 -20 -6 -20 3 0 10 9 16 20 6 11 8 20 6 20 -3
0 -10 -9 -16 -20z"/>
<path d="M5480 5845 c-7 -9 -8 -15 -2 -15 5 0 12 7 16 15 3 8 4 15 2 15 -2 0
-9 -7 -16 -15z"/>
<path d="M2440 5778 c-62 -32 -92 -88 -98 -186 l-5 -74 27 17 c18 12 26 26 26
47 0 34 20 108 29 108 3 0 19 -25 35 -55 16 -30 34 -55 40 -55 6 0 22 -3 35
-7 l25 -6 -22 31 c-26 35 -61 111 -62 130 0 25 74 14 123 -19 26 -17 47 -33
47 -36 0 -2 -5 -1 -11 3 -6 3 -4 -5 6 -19 9 -14 23 -28 31 -31 8 -3 14 -11 14
-18 0 -9 -3 -9 -9 1 -6 10 -8 1 -4 -25 4 -30 1 -45 -12 -57 -9 -9 -13 -22 -9
-29 4 -7 -2 -5 -14 5 -12 11 -26 16 -33 11 -8 -4 -10 -3 -5 4 4 7 1 12 -8 12
-9 0 -16 4 -16 8 0 16 -81 34 -121 27 -52 -9 -87 -39 -115 -99 -38 -81 -30
-239 14 -288 8 -10 11 -18 7 -18 -4 0 0 -9 10 -20 10 -11 14 -20 10 -20 -5 0
0 -7 11 -15 10 -8 15 -15 10 -15 -5 0 3 -9 18 -21 14 -11 23 -25 20 -31 -4 -7
-2 -8 4 -4 7 4 12 4 12 -1 0 -4 14 -14 30 -21 17 -8 28 -17 25 -22 -6 -9 47
-35 90 -44 l30 -7 1 -74 c0 -47 -4 -75 -10 -75 -6 0 -24 -11 -41 -25 -78 -65
-90 -81 -100 -139 -7 -33 -5 -36 17 -36 27 0 118 -54 118 -70 0 -5 4 -9 8 -7
4 1 23 -10 41 -25 18 -16 28 -28 23 -28 -5 0 -15 7 -22 15 -11 13 -15 13 -23
3 -6 -10 -7 -8 -3 4 3 10 1 20 -4 23 -4 3 -10 0 -12 -6 -3 -8 -9 -6 -20 5 -10
9 -24 13 -35 9 -10 -3 -15 -3 -11 2 15 16 -20 32 -71 33 -29 1 -57 5 -63 8 -7
5 -8 2 -2 -7 5 -8 9 -46 9 -86 1 -55 5 -77 19 -92 18 -20 16 -51 -4 -51 -5 0
-10 -5 -10 -11 0 -15 -42 -48 -62 -49 -21 0 -34 22 -43 75 -4 22 -31 81 -61
130 -50 85 -75 145 -59 145 15 0 45 -22 40 -30 -8 -13 36 -83 46 -73 14 14 -2
173 -17 173 -7 0 -35 -18 -63 -40 -57 -45 -57 -51 -20 -135 13 -29 15 -41 6
-44 -7 -2 -28 -12 -48 -22 -36 -18 -36 -18 -72 8 -32 23 -40 25 -63 14 -24
-11 -26 -15 -19 -54 4 -23 9 -54 11 -69 2 -15 14 -54 28 -87 16 -41 20 -58 11
-54 -8 2 -21 1 -29 -4 -14 -8 -13 -13 9 -45 45 -66 107 -198 109 -230 1 -29
-4 -35 -47 -58 l-47 -26 21 -20 c12 -10 42 -62 66 -114 25 -52 64 -122 88
-155 23 -33 50 -76 60 -95 l18 -35 -39 30 c-21 16 -70 53 -107 83 -84 66 -145
102 -175 102 -28 0 -90 -25 -113 -46 -14 -12 -15 -22 -6 -62 6 -26 16 -51 22
-57 6 -5 19 -21 30 -35 17 -21 15 -20 -13 4 l-32 30 0 -26 c0 -39 14 -68 53
-112 20 -22 46 -59 58 -82 12 -24 43 -67 69 -96 25 -29 66 -82 90 -117 23 -35
66 -91 94 -125 85 -100 94 -118 130 -247 19 -68 53 -192 77 -276 25 -92 46
-150 52 -146 6 3 7 1 3 -5 -3 -6 -1 -23 5 -39 7 -15 13 -35 14 -43 4 -31 17
-60 26 -60 6 0 8 -4 5 -9 -7 -12 51 -190 69 -211 7 -8 11 -20 8 -26 -4 -13 74
-210 127 -320 22 -45 73 -132 115 -193 41 -62 75 -115 75 -118 0 -3 11 -20 24
-37 37 -50 65 -118 126 -311 48 -150 110 -240 197 -288 68 -36 132 -49 248
-48 230 2 476 110 656 290 155 155 177 293 80 509 -40 87 -41 93 -41 198 0 68
8 148 20 211 22 114 26 267 11 385 -10 73 -9 80 17 135 22 48 27 72 27 140 0
46 2 83 5 83 15 0 139 -133 201 -216 129 -172 216 -221 340 -189 82 21 137 50
291 151 261 170 370 307 386 481 l7 78 1340 0 c1266 0 1343 -1 1397 -18 70
-23 84 -45 104 -172 4 -22 8 -47 9 -55 6 -40 18 -70 30 -70 9 0 9 14 -1 68
-18 98 -24 139 -29 220 -2 40 -7 77 -9 81 -3 5 -650 8 -1437 7 l-1432 -1 -24
38 c-35 55 -109 122 -175 157 -32 17 -58 37 -58 43 1 7 7 41 15 77 20 90 20
150 -1 150 -8 0 -12 5 -9 10 3 6 2 10 -2 10 -5 0 -9 8 -9 18 0 9 -4 49 -9 87
-4 39 -7 82 -7 98 1 15 -3 27 -8 27 -5 0 -2 12 5 27 8 15 19 50 25 78 9 41 18
55 51 79 93 66 155 233 150 404 -1 15 -5 21 -13 16 -7 -4 -8 -3 -4 4 4 7 1 12
-6 12 -8 1 -6 6 6 15 19 15 19 15 -2 15 -11 0 -26 8 -31 18 -8 12 -10 13 -11
3 0 -8 -3 -11 -6 -8 -4 4 -1 13 6 22 7 9 10 18 6 22 -3 3 -6 1 -6 -6 0 -7 -15
2 -34 21 -22 22 -30 35 -22 40 8 6 7 8 -1 8 -7 0 -13 7 -13 15 0 8 -5 15 -11
15 -5 0 -7 4 -4 10 3 5 0 7 -9 4 -10 -4 -15 0 -15 13 0 10 -2 27 -5 38 -2 11
-5 25 -5 32 -1 6 -10 9 -21 6 -17 -4 -19 -1 -15 27 2 17 9 38 16 46 6 8 9 14
6 14 -3 0 5 12 19 27 13 14 22 29 18 32 -3 3 -20 -10 -37 -29 -17 -19 -34 -34
-37 -33 -12 4 -88 -52 -83 -62 4 -5 3 -7 -2 -3 -26 24 -244 -203 -303 -315
-20 -40 -34 -83 -38 -122 -9 -85 -26 -98 -122 -98 -50 0 -77 4 -80 12 -3 8 -8
9 -16 2 -18 -15 -156 57 -264 138 -51 39 -120 85 -154 103 -73 39 -157 113
-200 177 -41 60 -81 105 -97 109 -7 1 -9 -2 -5 -9 12 -20 13 -63 2 -76 -7 -9
-7 -13 1 -13 7 0 9 -4 6 -10 -3 -5 -1 -10 5 -10 7 0 10 -7 6 -15 -3 -9 0 -15
10 -15 9 0 12 -5 8 -12 -5 -8 -2 -9 9 -5 11 4 17 1 17 -8 0 -8 7 -15 16 -15 8
0 12 -5 9 -10 -4 -6 -11 -8 -16 -5 -5 4 -9 2 -9 -4 0 -5 6 -12 13 -14 10 -4
10 -6 0 -6 -7 -1 -13 -8 -13 -16 0 -8 -6 -15 -13 -15 -23 0 -67 -25 -67 -37 0
-7 -6 -13 -14 -13 -9 0 -13 -7 -11 -20 3 -16 -1 -19 -18 -16 -12 3 -23 5 -24
7 -2 1 -7 2 -11 3 -5 0 -16 9 -25 18 -12 12 -14 18 -4 21 7 3 6 6 -5 6 -9 1
-18 -5 -21 -11 -2 -7 -6 -1 -9 14 -3 17 -1 25 5 21 5 -3 7 0 5 8 -3 8 -11 13
-17 11 -6 -1 -11 2 -11 8 0 5 5 10 11 10 8 0 7 6 -2 17 -10 12 -10 15 -1 9 7
-4 3 9 -8 30 -17 29 -19 39 -8 45 9 6 8 9 -5 15 -9 3 -17 10 -17 16 0 5 4 7 9
3 5 -3 12 -1 16 5 3 5 -1 10 -10 10 -9 0 -14 4 -11 9 4 5 0 12 -6 14 -8 3 -6
6 5 6 9 1 17 6 17 12 0 6 -6 9 -13 6 -18 -7 -16 35 2 49 8 6 11 16 7 22 -6 11
5 16 26 13 3 0 5 14 3 31 -5 32 -15 52 -15 28 0 -9 -5 -7 -15 6 -9 12 -14 14
-15 6 0 -7 -4 -10 -10 -7 -5 3 -10 1 -10 -6 0 -7 -3 -10 -6 -6 -4 3 -22 0 -41
-8 -42 -18 -46 -18 -38 -5 3 6 2 10 -2 10 -12 0 -14 38 -3 45 11 7 -9 56 -29
71 -8 6 -16 20 -17 30 -2 10 -8 20 -13 22 -6 2 -11 13 -11 23 0 11 -4 18 -9
14 -6 -3 -8 3 -6 15 2 11 0 22 -6 25 -5 4 -5 14 1 26 7 12 7 19 1 19 -6 0 -7
7 -4 17 4 11 3 14 -5 9 -8 -5 -12 1 -13 16 -1 52 -42 189 -62 211 -7 7 -13 18
-15 25 -1 8 -14 25 -27 40 -14 15 -25 32 -25 39 0 7 -8 17 -17 22 -10 6 -14
11 -10 11 11 0 -21 45 -33 46 -6 1 -14 2 -20 3 -5 0 -10 6 -10 12 0 5 5 7 10
4 17 -11 11 7 -15 41 -13 17 -29 50 -34 73 -8 35 -53 111 -66 111 -5 0 24 -71
34 -85 14 -18 21 -46 11 -40 -6 3 -10 0 -10 -7 -1 -7 -7 -2 -15 12 -14 25 -14
25 -15 -13 0 -21 -4 -36 -8 -33 -11 7 -56 -24 -81 -55 -26 -34 -40 -139 -27
-214 17 -107 174 -414 320 -625 24 -36 43 -66 41 -68 -2 -2 -16 3 -33 12 -32
17 -49 39 -77 106 -32 77 -84 148 -134 183 -49 36 -49 34 -81 164 -6 24 -34
78 -63 120 -57 84 -83 134 -91 173 -3 14 -15 36 -27 50 -20 24 -21 19 -2 -27
4 -10 2 -14 -4 -10 -7 5 -9 -1 -7 -15 4 -16 -1 -12 -15 12 -20 35 -25 33 -33
-15 -2 -11 -8 -20 -13 -20 -17 0 -89 -37 -105 -54 -9 -9 -20 -33 -27 -53 -10
-34 -9 -36 6 -26 10 6 30 30 45 54 15 24 30 44 33 44 2 0 1 -4 -2 -10 -3 -5 0
-10 7 -10 8 -1 6 -7 -7 -18 -11 -9 -33 -36 -48 -59 -16 -22 -37 -43 -49 -46
-11 -3 -17 -3 -14 0 3 3 -16 19 -42 36 -54 33 -67 46 -109 104 -17 23 -33 40
-36 37 -3 -3 -13 8 -21 25 -20 38 -21 51 -2 25 13 -16 13 -11 0 39 -8 33 -14
75 -12 95 l3 36 37 -60 c20 -32 50 -72 66 -87 84 -80 200 -59 231 42 11 38 5
105 -8 96 -4 -2 -17 16 -29 40 l-21 44 29 30 c25 24 30 38 30 76 0 25 -4 44
-9 41 -5 -3 -14 9 -22 27 -7 17 -21 44 -31 60 -11 15 -16 27 -12 27 17 0 -34
44 -71 61 -53 24 -82 24 -135 -3z m-20 -42 c0 -2 -8 -10 -17 -17 -16 -13 -17
-12 -4 4 13 16 21 21 21 13z m-49 -85 c-9 -28 -17 -44 -19 -36 -3 13 23 85 31
85 2 0 -4 -22 -12 -49z m31 -146 c-16 -13 -35 -38 -42 -55 -15 -37 -25 -34
-10 4 10 28 56 76 72 76 5 0 -4 -11 -20 -25z m98 14 c-12 -8 -9 -9 10 -5 18 4
35 -2 55 -19 56 -45 85 -77 78 -88 -3 -5 -2 -7 4 -4 5 4 15 -4 22 -16 18 -34
-1 -116 -34 -144 -26 -23 -72 -32 -60 -13 3 6 0 10 -8 10 -25 0 -92 83 -126
155 -33 70 -33 90 0 105 8 4 23 12 34 18 26 14 45 15 25 1z m735 -219 c-3 -5
-1 -10 4 -10 6 0 11 -4 11 -8 0 -5 -6 -9 -14 -9 -7 0 -12 7 -11 16 5 22 4 21
11 21 3 0 2 -4 -1 -10z m-25 -24 c0 -3 -4 -8 -10 -11 -5 -3 -10 -1 -10 4 0 6
5 11 10 11 6 0 10 -2 10 -4z m70 -41 c0 -2 -7 -5 -15 -9 -9 -3 -15 0 -15 9 0
9 6 12 15 9 8 -4 15 -7 15 -9z m2 -36 c-12 -5 -22 -11 -22 -13 0 -3 7 -3 16 1
9 3 23 -3 35 -15 21 -23 25 -37 8 -26 -8 4 -7 0 1 -15 6 -12 16 -18 22 -15 7
4 8 3 4 -5 -4 -6 -10 -23 -12 -37 -4 -20 -1 -25 10 -21 12 5 13 1 7 -16 -6
-17 -3 -27 14 -42 12 -12 21 -31 20 -43 -1 -14 4 -22 14 -23 9 0 3 -5 -14 -10
-20 -6 -32 -5 -37 4 -4 7 -8 8 -8 3 0 -5 -9 -1 -19 8 -11 10 -17 24 -14 32 3
8 -5 26 -17 40 -13 13 -18 24 -12 24 6 0 9 7 5 16 -4 10 -8 12 -12 5 -4 -6 -7
5 -8 23 -1 19 -5 41 -9 48 -13 21 -13 38 -1 38 9 0 8 3 0 8 -19 12 12 53 34
45 14 -5 13 -8 -5 -14z m1938 -663 c0 -2 -7 -7 -16 -10 -8 -3 -12 -2 -9 4 6
10 25 14 25 6z m-2990 -288 c28 -52 26 -92 -5 -112 -13 -9 -26 -16 -29 -16
-13 0 -26 73 -26 144 l0 81 21 -30 c11 -16 29 -47 39 -67z m-149 15 c13 -16
12 -17 -3 -4 -10 7 -18 15 -18 17 0 8 8 3 21 -13z m1932 -116 c9 -1 17 -7 17
-14 0 -10 8 -11 28 -7 22 6 25 5 16 -7 -9 -11 -9 -17 1 -26 7 -6 16 -8 21 -4
5 4 20 -3 33 -16 19 -18 21 -23 8 -23 -10 0 -17 -5 -17 -11 0 -5 5 -7 12 -3 8
5 9 2 5 -10 -4 -9 -3 -14 2 -11 5 3 11 -5 13 -17 2 -18 9 -23 31 -22 32 1 22
-16 -10 -19 -13 0 -19 -6 -16 -14 7 -17 23 -17 23 0 1 6 6 2 13 -11 7 -12 17
-19 22 -15 4 4 5 3 2 -4 -4 -6 -17 -9 -30 -7 -15 3 -17 2 -7 -3 8 -5 16 -13
17 -19 1 -6 4 -24 7 -40 3 -15 12 -32 21 -36 22 -13 20 -42 -2 -34 -11 4 -8
-2 7 -14 14 -11 30 -20 35 -20 6 0 4 -4 -4 -9 -10 -7 -18 -5 -26 5 -9 13 -11
12 -11 -5 0 -11 3 -18 7 -16 3 3 11 -7 18 -21 14 -32 14 -35 -3 -28 -8 3 -13
11 -10 18 3 8 -7 11 -33 9 -21 -2 -32 0 -25 3 6 3 12 10 12 15 0 6 -5 7 -10 4
-14 -9 -81 56 -77 75 1 8 -8 23 -20 33 -13 10 -21 23 -18 28 4 5 2 9 -3 9 -6
0 -13 17 -17 37 -4 21 -16 44 -27 51 -11 8 -17 20 -14 29 4 11 2 13 -9 9 -8
-3 -15 -1 -15 5 0 6 -4 8 -9 4 -6 -3 -8 4 -6 17 3 13 9 24 15 26 6 2 -1 13
-15 24 -23 18 -27 46 -4 33 5 -4 9 -2 9 4 0 5 -5 13 -11 17 -8 4 -7 9 2 14 18
11 39 1 32 -16 -3 -8 0 -14 7 -14 6 0 8 5 5 10 -3 6 0 10 7 10 7 1 2 7 -12 14
-14 8 -28 12 -32 10 -3 -2 -9 0 -13 5 -3 6 4 8 17 4 13 -3 31 -6 41 -6z m-263
-17 c0 -5 -2 -10 -4 -10 -3 0 -8 5 -11 10 -3 6 -1 10 4 10 6 0 11 -4 11 -10z
m205 -90 c3 -5 2 -10 -4 -10 -5 0 -13 5 -16 10 -3 6 -2 10 4 10 5 0 13 -4 16
-10z m235 -35 c0 -2 -7 -8 -15 -15 -12 -10 -15 -10 -15 2 0 8 7 15 15 15 8 0
15 -1 15 -2z m-1249 -18 c-6 -8 -7 -18 -3 -22 4 -5 1 -5 -6 -1 -10 6 -10 11
-1 22 6 8 14 14 16 14 3 0 0 -6 -6 -13z m1293 -120 c4 4 4 0 0 -10 -8 -21 -20
-14 -27 15 -5 21 -5 21 7 6 7 -10 16 -15 20 -11z m-1084 -248 c-7 -11 -14 -18
-17 -15 -3 3 0 12 7 21 18 21 23 19 10 -6z m-1225 -175 c9 -15 12 -23 6 -20
-11 7 -35 46 -28 46 3 0 12 -12 22 -26z m1594 -264 c14 -13 29 -23 32 -22 4 0
6 -9 5 -22 0 -13 -4 -22 -7 -20 -4 2 -9 -3 -13 -11 -3 -8 -15 -15 -26 -15 -22
0 -27 15 -8 26 7 4 8 3 4 -4 -4 -7 -1 -12 6 -12 18 0 18 52 0 56 -7 1 -8 0 -2
-3 5 -2 10 -9 10 -14 0 -6 -4 -8 -9 -4 -5 3 -12 1 -16 -5 -3 -5 -14 -10 -23
-9 -13 0 -11 3 5 9 19 8 20 12 10 34 -7 14 -17 24 -23 22 -6 -2 -11 1 -11 8 0
20 38 12 66 -14z m-621 -35 c-3 -3 -9 2 -12 12 -6 14 -5 15 5 6 7 -7 10 -15 7
-18z m-211 -87 c-3 -8 -6 -5 -6 6 -1 11 2 17 5 13 3 -3 4 -12 1 -19z m850 16
c-3 -3 -12 -4 -19 -1 -8 3 -5 6 6 6 11 1 17 -2 13 -5z m-584 -21 c-7 -2 -13
-11 -13 -19 0 -8 -5 -14 -11 -14 -5 0 -7 -4 -4 -10 3 -5 1 -10 -4 -10 -6 0
-11 9 -11 21 0 11 5 17 10 14 6 -3 10 1 10 9 0 9 8 16 18 15 10 0 12 -3 5 -6z
m9 -35 c-7 -7 -12 -8 -12 -2 0 6 3 14 7 17 3 4 9 5 12 2 2 -3 -1 -11 -7 -17z
m13 -28 c6 -10 -6 -14 -40 -10 -11 1 -17 -1 -14 -5 4 -3 20 -8 35 -9 16 -2 32
-4 37 -5 4 0 6 -7 5 -13 -2 -7 3 -12 11 -10 12 3 12 0 2 -12 -7 -9 -17 -13
-22 -10 -5 3 -6 -2 -3 -10 3 -9 10 -16 16 -16 5 0 7 4 4 9 -3 5 1 12 10 15 12
4 14 1 9 -14 -5 -15 1 -24 24 -38 17 -10 28 -22 24 -25 -3 -4 -13 -1 -21 6 -9
6 -5 -2 7 -20 14 -18 20 -36 16 -44 -5 -8 -4 -10 3 -5 7 4 12 1 12 -9 0 -9 -4
-13 -10 -10 -6 3 -7 -1 -4 -9 3 -9 9 -14 13 -12 3 2 5 -13 5 -35 -2 -28 2 -39
13 -39 8 0 11 -5 8 -10 -4 -6 -12 -7 -18 -4 -7 4 -2 -4 9 -17 14 -15 21 -34
19 -52 -2 -17 2 -30 10 -33 7 -3 12 -14 10 -25 -2 -11 0 -17 6 -14 9 6 10 -1
12 -62 1 -18 4 -33 7 -33 13 0 30 -49 20 -55 -7 -4 -6 -13 0 -26 6 -11 8 -24
5 -29 -3 -6 1 -10 9 -10 9 0 16 -7 16 -15 0 -8 5 -15 11 -15 5 0 7 -4 4 -10
-3 -5 1 -10 9 -10 19 0 21 -17 4 -22 -7 -3 -2 -7 10 -10 12 -4 25 -1 29 4 4 7
1 8 -7 3 -9 -5 -11 -4 -6 4 4 6 12 9 17 6 5 -4 9 -1 9 5 0 7 5 6 13 -2 8 -7
13 -30 12 -54 -1 -30 2 -41 11 -37 7 2 11 13 9 24 -2 11 2 19 10 19 8 0 12 6
9 14 -3 7 2 16 11 20 9 3 14 10 11 15 -3 5 -2 20 3 33 l10 23 0 -24 c1 -18 5
-22 19 -16 38 16 55 18 48 7 -4 -7 -15 -12 -24 -13 -12 0 -10 -3 6 -10 13 -5
28 -7 33 -3 5 3 9 1 9 -4 0 -16 51 -24 66 -11 10 8 14 8 14 0 0 -6 -4 -11 -10
-11 -5 0 -10 -7 -10 -15 0 -25 19 -17 26 11 5 19 9 22 15 12 13 -19 11 -40 -2
-32 -7 4 -10 1 -7 -7 2 -7 -4 -23 -14 -34 -19 -20 -19 -20 4 -27 13 -3 17 -6
10 -7 -7 -1 -20 -8 -29 -17 -9 -8 -22 -13 -29 -10 -8 3 -11 0 -7 -10 4 -11 0
-15 -12 -12 -10 2 -20 -4 -22 -12 -4 -13 -3 -13 6 0 12 17 14 10 5 -14 -3 -9
-16 -16 -28 -17 -11 0 -15 -3 -8 -6 13 -5 17 -24 5 -22 -18 3 -36 -1 -30 -7 3
-4 -4 -15 -16 -25 l-22 -18 24 6 c23 6 24 5 9 -16 -14 -20 -14 -26 -2 -49 18
-36 18 -51 -1 -26 -14 18 -14 17 -5 -9 13 -37 13 -37 -7 -30 -11 4 -14 3 -9
-5 9 -14 -18 -44 -29 -34 -5 4 -6 0 -3 -8 4 -11 -1 -16 -13 -17 -17 -2 -24 8
-20 30 1 5 -3 6 -9 2 -6 -4 -16 -2 -23 4 -15 12 -42 -2 -42 -21 0 -7 -14 -14
-33 -16 -26 -3 -34 1 -42 20 -10 21 -10 21 -7 2 4 -18 1 -20 -17 -16 -11 3
-15 7 -9 9 7 3 9 11 6 19 -3 7 -9 11 -14 8 -5 -3 -9 0 -9 6 0 7 -6 8 -16 2
-18 -10 -64 -4 -64 9 0 5 -7 9 -16 9 -8 0 -13 4 -10 9 4 5 -7 4 -23 -2 -17 -6
-28 -15 -25 -19 3 -4 0 -8 -5 -8 -6 0 -11 5 -11 12 0 6 -3 9 -6 5 -3 -3 -2
-13 3 -22 9 -15 11 -15 25 -1 17 17 28 11 28 -13 0 -11 -3 -12 -8 -4 -5 8 -13
9 -22 3 -10 -6 -20 -4 -31 6 -15 14 -17 13 -15 -3 1 -13 -6 -18 -21 -17 -13 1
-20 -2 -18 -7 3 -4 14 -6 25 -4 11 2 20 0 20 -6 0 -13 -44 -11 -57 2 -6 6 -26
13 -45 14 -18 2 -27 1 -20 -2 10 -4 10 -8 1 -20 -10 -11 -10 -13 1 -11 7 2 15
-3 17 -9 3 -8 -4 -13 -16 -13 -12 0 -21 5 -21 10 0 7 -8 6 -22 -1 -21 -11 -22
-11 -10 4 8 9 10 22 6 29 -6 9 -3 9 9 -1 15 -12 17 -12 11 3 -4 11 -14 16 -25
13 -12 -3 -19 0 -19 10 0 10 6 13 16 9 9 -3 14 -1 12 5 -2 6 -7 10 -12 9 -5
-1 -14 9 -20 22 -9 16 -20 22 -39 21 -19 -1 -25 2 -20 10 4 7 8 23 8 36 l1 23
-17 -21 c-14 -17 -18 -18 -23 -6 -3 8 -1 14 4 12 6 -1 20 13 31 31 12 17 16
32 10 32 -6 0 -11 -7 -11 -15 0 -21 -20 -19 -21 3 0 10 -3 12 -6 5 -2 -7 -9
-13 -14 -13 -6 0 -7 5 -4 10 3 6 1 10 -4 10 -6 0 -11 9 -11 21 0 11 -7 27 -15
35 -8 8 -12 21 -8 29 3 9 -1 23 -8 32 -10 12 -10 15 -1 9 7 -4 12 -2 12 6 0
10 3 9 11 -2 9 -13 10 -13 6 0 -2 8 -10 14 -17 12 -8 -2 -10 3 -7 12 7 16 -13
18 -24 2 -4 -4 -7 5 -7 20 0 16 4 34 9 39 8 11 -3 37 -15 36 -3 -1 -5 2 -3 7
1 4 10 7 20 6 10 0 17 7 17 18 0 10 -5 18 -11 18 -5 0 -7 -5 -4 -11 4 -6 -2
-5 -14 3 -13 8 -17 16 -11 22 6 6 10 18 10 28 0 10 5 17 11 16 6 -2 14 3 16
10 3 8 -1 10 -12 6 -9 -4 -15 -3 -14 2 1 5 0 12 -1 17 -4 12 -7 27 -9 38 0 6
-11 1 -22 -12 l-21 -24 15 25 c8 14 21 25 28 26 34 2 39 5 39 22 -1 16 -1 16
-11 -1 -11 -18 -29 -14 -29 6 0 7 4 6 10 -3 9 -13 10 -13 10 1 0 8 -5 20 -12
27 -9 9 -4 13 21 18 21 4 28 10 20 14 -21 14 -3 38 25 33 19 -4 26 -1 26 11 0
9 -6 16 -12 16 -9 0 -8 4 2 10 11 7 11 10 2 10 -7 0 -10 5 -7 10 3 6 1 10 -5
10 -6 0 -8 5 -5 10 4 6 11 8 16 4 5 -3 16 0 24 6 12 10 15 10 15 0 0 -8 2 -11
5 -9 2 3 1 20 -5 37 -5 18 -5 30 0 27 5 -3 11 -2 14 3 7 11 -27 12 -34 1 -3
-5 -11 1 -18 11 -9 14 -9 19 -1 18 6 -2 14 3 17 11 2 8 0 11 -6 7 -6 -3 -13
-2 -17 4 -3 5 1 10 9 10 9 0 16 5 16 11 0 5 -6 7 -12 3 -8 -4 -10 -3 -5 2 5 5
13 10 18 10 5 1 12 2 15 3 3 0 -1 8 -10 16 -14 14 -14 18 2 34 20 21 30 18 12
-4 -11 -13 -10 -19 5 -35 17 -18 16 -22 -1 -19 -14 2 -22 -26 -13 -43 11 -20
29 -24 29 -7 0 5 -4 7 -10 4 -11 -7 -12 -3 -4 19 3 8 12 12 20 9 8 -3 11 -9 8
-14 -3 -5 -1 -9 4 -9 14 0 21 36 10 51 -8 11 -9 10 -4 -3 3 -11 0 -18 -8 -18
-7 0 -13 7 -13 15 0 8 3 15 7 15 4 0 7 7 7 15 0 8 -4 15 -9 15 -4 0 -8 5 -8
11 0 5 5 7 10 4 6 -3 10 0 10 7 0 10 3 9 10 -2 5 -9 5 -19 -2 -27 -11 -13 -5
-15 48 -16 15 0 20 -5 17 -17 -3 -10 2 -20 11 -23 10 -4 16 -1 16 8 0 8 4 15
9 15 5 0 7 -9 4 -20 -6 -23 -4 -23 -37 -10 -14 5 -26 16 -26 23 0 8 -6 14 -13
14 -11 0 -11 -5 -3 -23 6 -12 15 -22 21 -21 5 1 9 -6 9 -15 -1 -10 2 -18 7
-18 5 0 9 6 9 13 0 9 10 12 31 9 20 -3 34 0 40 9 4 8 12 14 16 15 17 2 43 17
43 25 0 4 -8 6 -17 2 -10 -3 -15 -2 -10 2 4 5 0 17 -10 27 -17 19 -5 26 14 7
8 -8 14 -6 22 9 6 10 7 22 4 26 -3 3 0 6 8 6 12 0 12 2 0 9 -10 7 -19 5 -26
-6 -8 -11 -14 -12 -19 -5 -3 6 3 17 14 25 11 7 17 17 13 20 -3 4 1 7 10 7 9 0
19 4 22 10 3 6 -1 7 -10 4 -13 -5 -14 -2 -6 18 7 19 6 25 -5 25 -8 0 -12 -7
-9 -16 2 -9 0 -23 -5 -31 -7 -12 -12 -12 -22 -2 -7 7 -8 12 -2 12 6 0 11 7 11
15 0 8 -5 15 -10 15 -5 0 -5 6 2 13 8 10 7 17 -1 25 -9 9 -5 14 13 21 32 13
37 13 44 1z m570 -30 c3 -5 1 -10 -4 -10 -6 0 -11 5 -11 10 0 6 2 10 4 10 3 0
8 -4 11 -10z m520 -94 c65 -30 128 -95 167 -174 29 -59 32 -98 4 -59 -16 21
-64 22 -92 2 -12 -8 -24 -11 -28 -8 -3 3 -6 1 -6 -5 0 -7 -4 -12 -8 -12 -11 0
-122 136 -122 150 0 6 -5 8 -10 5 -6 -3 -13 1 -16 10 -4 9 -18 21 -31 26 -13
5 -22 13 -18 19 3 5 12 7 20 3 11 -4 14 0 9 13 -4 11 -11 24 -16 31 -5 7 -4
13 4 17 7 3 0 4 -17 1 -23 -4 -27 -3 -15 5 22 16 116 3 175 -24z m-1366 -37
c-22 -13 -31 -11 -17 5 7 8 17 12 22 9 4 -3 2 -9 -5 -14z m1063 -46 c-6 -3
-10 -8 -8 -12 3 -3 -2 -36 -9 -71 -19 -89 -18 -135 6 -200 11 -30 21 -60 21
-67 1 -7 5 -10 9 -7 4 2 10 0 14 -6 3 -5 -2 -10 -12 -11 -10 0 -26 -2 -36 -4
-9 -2 -15 1 -12 5 3 5 1 11 -5 15 -9 6 -14 -10 -13 -42 1 -7 -8 -13 -18 -13
-16 0 -18 -3 -9 -19 5 -11 10 -31 10 -45 0 -14 4 -26 8 -26 5 0 9 -7 9 -15 0
-13 -3 -13 -18 1 -13 12 -19 12 -25 3 -4 -8 -3 -10 4 -5 7 4 12 1 12 -7 0 -13
-39 -31 -48 -22 -2 2 2 13 8 25 8 15 8 20 1 16 -6 -4 -11 0 -12 11 0 10 -2 26
-4 35 -2 10 1 21 6 24 6 3 8 13 5 22 -12 44 -16 153 -6 202 18 96 105 249 128
225 4 -4 1 -10 -6 -12z m-880 -50 c-6 -3 -9 -10 -6 -15 4 -7 2 -8 -5 -4 -9 6
-9 11 0 22 6 8 15 12 18 8 3 -4 0 -9 -7 -11z m-306 -40 c-2 -9 -9 -19 -17 -21
-11 -3 -11 -1 1 7 8 6 11 11 7 11 -5 0 -5 5 -2 10 9 15 14 12 11 -7z m1432
-99 c27 -31 28 -57 2 -138 -27 -82 -39 -97 -77 -98 -32 -1 -93 19 -93 31 0 3
16 56 35 116 19 61 35 116 35 123 0 8 -10 22 -22 33 -14 11 0 7 37 -12 33 -17
70 -42 83 -55z m-1408 28 c-8 -3 -23 -14 -35 -26 l-21 -21 1 38 c0 31 2 35 12
21 8 -11 18 -14 30 -9 12 5 14 9 6 12 -7 3 -13 12 -13 21 0 12 4 10 17 -8 14
-19 14 -25 3 -28z m85 -1 c0 -8 -6 -16 -14 -19 -10 -3 -12 0 -8 11 4 10 0 18
-11 21 -9 2 -6 4 8 3 14 -1 25 -8 25 -16z m-154 -24 c-10 -9 -11 -8 -5 6 3 10
9 15 12 12 3 -3 0 -11 -7 -18z m119 17 c0 -8 -19 -13 -24 -6 -3 5 1 9 9 9 8 0
15 -2 15 -3z m1620 -7 c0 -1 4 -17 9 -35 6 -20 6 -30 0 -27 -5 4 -9 14 -9 24
0 9 -5 22 -12 29 -9 9 -9 12 0 12 7 0 12 -1 12 -3z m-1660 -37 c0 -5 -10 -6
-21 -3 -18 5 -20 3 -14 -17 5 -15 4 -20 -4 -16 -15 10 -14 43 2 49 15 5 37 -2
37 -13z m28 -11 c-2 -3 3 -13 11 -22 9 -11 10 -17 2 -17 -6 0 -11 5 -11 10 0
6 -7 10 -15 10 -16 0 -34 -29 -28 -47 2 -6 0 -14 -5 -17 -5 -3 -9 3 -10 12 -1
26 20 62 35 62 8 0 11 5 7 11 -4 7 -2 10 5 8 7 -3 11 -7 9 -10z m-103 -8 c-3
-6 4 -15 15 -21 21 -11 25 -41 9 -75 -7 -16 -8 -13 -5 13 2 17 1 32 -2 32 -10
0 -31 48 -24 55 9 8 14 6 7 -4z m22 -137 c-3 -3 -12 -4 -19 -1 -8 3 -5 6 6 6
11 1 17 -2 13 -5z m13 -105 c0 -6 -4 -7 -10 -4 -5 3 -10 11 -10 16 0 6 5 7 10
4 6 -3 10 -11 10 -16z m736 -56 c-10 -10 -19 5 -10 18 6 11 8 11 12 0 2 -7 1
-15 -2 -18z m304 -3 c0 -5 -5 -10 -11 -10 -5 0 -7 5 -4 10 3 6 8 10 11 10 2 0
4 -4 4 -10z m-1062 -25 c-3 -3 -9 2 -12 12 -6 14 -5 15 5 6 7 -7 10 -15 7 -18z
m1076 -29 c-3 -7 0 -26 6 -42 9 -27 9 -28 -5 -10 -8 11 -15 25 -15 32 0 7 -3
20 -6 28 -5 12 -2 15 9 10 9 -3 14 -11 11 -18z m61 3 c11 -16 1 -19 -13 -3 -7
8 -8 14 -3 14 5 0 13 -5 16 -11z m-1115 -33 c0 -3 -4 -8 -10 -11 -5 -3 -10 -1
-10 4 0 6 5 11 10 11 6 0 10 -2 10 -4z m163 -347 c-6 -6 -9 -19 -6 -28 4 -13
3 -13 -5 -2 -12 16 -5 41 11 41 8 0 8 -3 0 -11z m317 -24 c0 -12 -19 -12 -23
0 -4 9 -1 12 9 8 7 -3 14 -7 14 -8z m30 -19 c0 -3 -4 -8 -10 -11 -5 -3 -10 -1
-10 4 0 6 5 11 10 11 6 0 10 -2 10 -4z m58 -14 c6 -18 -15 -14 -22 4 -4 10 -1
14 6 12 6 -2 14 -10 16 -16z m183 -7 c18 12 9 -2 -22 -31 -22 -21 -28 -24 -23
-10 6 14 4 17 -6 11 -8 -5 -11 -3 -8 6 3 8 12 13 20 13 11 -1 14 5 11 20 -4
19 -3 19 7 3 6 -9 15 -15 21 -12z m-571 7 c0 -5 -7 -9 -15 -9 -8 0 -12 4 -9 9
3 4 9 8 15 8 5 0 9 -4 9 -8z m154 -52 c6 0 5 -4 -3 -9 -8 -5 -16 -20 -18 -32
-4 -28 -13 -38 -13 -16 0 24 -15 21 -29 -5 -6 -13 -9 -15 -7 -5 3 9 1 17 -4
17 -6 0 -10 -5 -10 -11 0 -5 -5 -7 -11 -3 -8 5 -6 10 5 16 9 5 14 13 11 17 -2
5 1 9 8 8 32 -1 47 4 47 17 0 7 -9 16 -21 19 -12 3 -18 10 -14 16 4 7 14 4 27
-9 12 -11 27 -20 32 -20z m-94 -18 c0 -4 -10 -9 -22 -9 -18 -2 -20 0 -8 7 18
12 30 13 30 2z m316 -270 c-3 -3 2 -10 11 -17 13 -9 13 -14 3 -20 -9 -5 -11
-4 -6 3 4 7 1 12 -8 12 -8 0 -14 8 -13 19 0 11 5 17 10 14 4 -3 6 -7 3 -11z
m-55 -15 c-10 -9 -11 -8 -5 6 3 10 9 15 12 12 3 -3 0 -11 -7 -18z m94 -77 c3
-5 -1 -10 -10 -10 -9 0 -13 5 -10 10 3 6 8 10 10 10 2 0 7 -4 10 -10z m85
-300 c0 -6 -4 -10 -10 -10 -5 0 -10 -7 -10 -15 0 -8 -4 -15 -8 -15 -4 0 -8 9
-8 19 0 11 3 19 6 19 20 -2 21 4 4 18 -18 14 -18 15 4 4 12 -6 22 -15 22 -20z
m25 10 c-3 -5 1 -10 11 -10 15 0 15 -2 2 -22 -20 -30 -28 -76 -14 -81 6 -2 1
-6 -11 -9 -14 -4 -22 -2 -20 6 1 6 -4 10 -11 8 -8 -1 -11 2 -7 8 3 6 10 8 15
5 4 -3 10 2 14 10 3 9 0 15 -10 15 -12 0 -12 2 -2 14 7 8 17 13 22 13 5 -1 11
4 14 12 3 8 0 11 -7 7 -7 -5 -11 1 -11 13 0 12 5 21 11 21 5 0 7 -4 4 -10z
m43 -17 c-2 -18 2 -27 10 -25 6 1 12 -5 12 -13 0 -8 -4 -15 -10 -15 -5 0 -10
5 -10 11 0 5 -4 8 -9 5 -5 -4 -8 2 -6 11 2 10 4 26 4 36 1 9 4 17 7 17 3 0 4
-12 2 -27z m32 7 c0 -5 -5 -10 -11 -10 -5 0 -7 5 -4 10 3 6 8 10 11 10 2 0 4
-4 4 -10z m-15 -71 c19 -9 19 -9 -1 -6 -12 3 -29 0 -38 -5 -10 -6 -16 -5 -16
1 0 8 17 19 30 20 3 0 14 -5 25 -10z m-22 -34 c-3 -9 -8 -14 -10 -11 -3 3 -2
9 2 15 9 16 15 13 8 -4z m21 -21 c3 -8 2 -12 -4 -9 -6 3 -10 10 -10 16 0 14 7
11 14 -7z m-24 -14 c0 -5 -8 -10 -17 -10 -15 0 -16 2 -3 10 19 12 20 12 20 0z"/>
<path d="M4110 3776 c0 -2 8 -10 18 -17 15 -13 16 -12 3 4 -13 16 -21 21 -21
13z"/>
<path d="M3490 3169 c0 -5 5 -7 10 -4 6 3 10 8 10 11 0 2 -4 4 -10 4 -5 0 -10
-5 -10 -11z"/>
<path d="M3045 2810 c-3 -5 -1 -10 4 -10 6 0 11 5 11 10 0 6 -2 10 -4 10 -3 0
-8 -4 -11 -10z"/>
<path d="M2894 2702 c-4 -10 -6 -20 -6 -24 1 -5 -2 -8 -8 -8 -5 0 -10 4 -10 8
0 4 -9 8 -19 8 -16 0 -17 -4 -10 -18 5 -10 16 -18 23 -18 8 0 17 -11 20 -25 9
-37 29 -20 22 19 -4 24 -3 27 5 14 14 -25 33 -23 19 1 -13 26 -13 44 1 35 7
-4 10 -1 7 6 -6 20 -36 20 -44 2z"/>
<path d="M2930 2623 c5 -2 8 -9 5 -13 -3 -5 -1 -11 4 -14 5 -4 8 2 7 11 -2 9
-8 18 -15 19 -6 1 -7 0 -1 -3z"/>
<path d="M2916 2543 c-6 -14 -5 -15 5 -6 7 7 10 15 7 18 -3 3 -9 -2 -12 -12z"/>
<path d="M2620 2500 c0 -5 5 -10 11 -10 5 0 7 5 4 10 -3 6 -8 10 -11 10 -2 0
-4 -4 -4 -10z"/>
<path d="M2645 2440 c3 -5 8 -10 11 -10 2 0 4 5 4 10 0 6 -5 10 -11 10 -5 0
-7 -4 -4 -10z"/>
<path d="M2587 2276 c-3 -7 3 -12 14 -11 27 2 33 12 10 18 -11 2 -22 -1 -24
-7z"/>
<path d="M2600 2190 c0 -5 5 -10 10 -10 6 0 10 5 10 10 0 6 -4 10 -10 10 -5 0
-10 -4 -10 -10z"/>
<path d="M3273 2175 c0 -8 4 -12 9 -9 5 3 6 10 3 15 -9 13 -12 11 -12 -6z"/>
<path d="M2613 2145 c0 -8 4 -15 9 -15 4 0 8 4 8 9 0 6 -4 12 -8 15 -5 3 -9
-1 -9 -9z"/>
<path d="M2635 2120 c-8 -13 5 -13 25 0 13 8 13 10 -2 10 -9 0 -20 -4 -23 -10z"/>
<path d="M2630 2026 c0 -9 4 -16 8 -16 5 0 13 -12 18 -27 10 -27 10 -27 16 -5
3 12 2 20 -2 17 -5 -3 -10 5 -12 17 -4 25 -28 37 -28 14z"/>
<path d="M3415 2000 c-3 -5 -1 -10 4 -10 6 0 11 5 11 10 0 6 -2 10 -4 10 -3 0
-8 -4 -11 -10z"/>
<path d="M2720 1868 c0 -8 11 -14 25 -14 20 0 27 11 7 11 -4 0 -13 4 -19 8 -8
5 -13 3 -13 -5z"/>
<path d="M5414 5766 c-10 -8 -17 -17 -14 -19 3 -3 14 1 24 9 11 7 17 16 15 19
-3 3 -14 -2 -25 -9z"/>
<path d="M5420 5735 c0 -8 2 -15 4 -15 2 0 6 7 10 15 3 8 1 15 -4 15 -6 0 -10
-7 -10 -15z"/>
<path d="M5355 5710 c-3 -5 -1 -10 4 -10 6 0 11 5 11 10 0 6 -2 10 -4 10 -3 0
-8 -4 -11 -10z"/>
<path d="M5339 5678 c-11 -8 -11 -9 3 -5 9 3 18 1 20 -5 2 -6 11 -9 18 -6 12
4 10 7 -6 16 -14 7 -25 7 -35 0z"/>
<path d="M5304 5658 c-4 -6 -3 -8 4 -4 5 3 12 1 14 -6 3 -8 6 -9 11 -1 4 6 0
13 -8 17 -8 3 -17 0 -21 -6z"/>
<path d="M4737 5144 c-4 -11 -18 -84 -32 -162 -26 -147 -38 -182 -66 -182 -16
0 -67 40 -158 127 -60 58 -97 75 -112 52 -19 -30 -29 -88 -29 -177 0 -165 90
-642 121 -642 22 0 21 53 -7 430 -6 89 4 134 32 138 22 3 94 -65 159 -150 78
-103 98 -45 99 282 1 118 4 186 7 150 l6 -65 0 80 c0 44 -2 94 -6 110 -6 27
-8 28 -14 9z m0 -327 c-9 -156 -19 -237 -27 -237 -15 0 -17 65 -4 115 8 27 17
92 20 143 4 50 9 92 12 92 3 0 2 -51 -1 -113z m-212 46 c34 -32 79 -72 99 -90
36 -30 41 -53 12 -53 -11 0 -128 122 -175 183 -28 35 4 15 64 -40z m-65 -87
c0 -13 -6 -26 -12 -28 -15 -5 -16 -90 -6 -278 8 -155 -5 -89 -23 110 -14 165
-9 220 21 220 14 0 20 -7 20 -24z m-3 -483 c-3 -10 -5 -4 -5 12 0 17 2 24 5
18 2 -7 2 -21 0 -30z"/>
<path d="M3546 4781 c-4 -5 0 -28 7 -50 13 -36 13 -41 -2 -46 -14 -6 -14 -8 3
-17 10 -5 33 -12 52 -13 l33 -3 -24 39 c-14 21 -25 41 -25 45 0 14 -39 54 -44
45z"/>
<path d="M5342 4655 c3 -36 5 -38 50 -50 26 -6 66 -25 90 -41 67 -46 75 -50
61 -33 -6 8 -14 36 -18 63 -7 45 -11 50 -50 67 -24 11 -64 22 -90 26 l-46 6 3
-38z"/>
<path d="M3831 4454 c0 -11 3 -14 6 -6 3 7 2 16 -1 19 -3 4 -6 -2 -5 -13z"/>
<path d="M3830 4420 c0 -5 5 -10 11 -10 5 0 7 5 4 10 -3 6 -8 10 -11 10 -2 0
-4 -4 -4 -10z"/>
<path d="M5400 4229 c0 -5 5 -7 10 -4 6 3 10 8 10 11 0 2 -4 4 -10 4 -5 0 -10
-5 -10 -11z"/>
<path d="M1882 4188 c-49 -25 -49 -24 6 -133 30 -61 119 -205 127 -205 5 0
-33 128 -44 149 -7 12 -8 21 -4 21 4 0 3 4 -4 8 -15 9 -73 119 -73 138 0 8 5
14 10 14 6 0 10 -8 10 -19 0 -10 7 -24 15 -31 8 -7 13 -16 10 -20 -3 -5 0 -12
6 -16 9 -5 10 4 4 37 -4 24 -7 52 -7 62 1 22 -4 21 -56 -5z"/>
<path d="M8629 4075 c-15 -15 -201 -16 -1696 -15 -260 0 -476 0 -480 -1 -5 -1
-12 0 -18 1 -5 1 -32 1 -60 1 -599 -2 -857 -1 -863 2 -18 11 -51 -15 -62 -48
-7 -20 -10 -38 -8 -40 2 -3 715 -5 1584 -5 l1579 -1 8 37 c4 21 12 44 19 51
10 12 7 29 -3 18z"/>
<path d="M9245 4070 c3 -5 10 -10 16 -10 5 0 9 5 9 10 0 6 -7 10 -16 10 -8 0
-12 -4 -9 -10z"/>
<path d="M9894 4037 c3 -10 6 -30 6 -43 0 -24 0 -24 114 -24 105 0 170 11 189
31 4 5 4 7 1 4 -4 -2 -14 0 -24 5 -25 13 -95 22 -190 23 -47 1 -89 6 -93 12
-5 6 -6 2 -3 -8z"/>
<path d="M9260 3980 c0 -40 -14 -68 -24 -51 -4 6 -32 11 -62 11 -40 0 -59 5
-73 19 -21 21 -31 18 -31 -11 0 -14 -5 -18 -17 -14 -10 3 -40 6 -68 6 -105 2
-146 11 -154 34 -8 19 -9 18 -15 -12 -5 -20 -12 -30 -19 -25 -6 4 -36 8 -67
10 -81 5 -94 7 -102 18 -4 6 -8 -4 -8 -22 0 -17 -6 -34 -12 -36 -17 -7 103 -8
731 -7 283 0 517 3 520 5 13 13 -23 28 -64 27 -34 0 -52 5 -66 19 -19 19 -19
19 -29 -5 -8 -23 -12 -24 -42 -15 -18 5 -56 9 -84 9 -80 0 -114 9 -114 32 0
10 -4 16 -10 13 -5 -3 -10 -20 -10 -37 0 -23 -3 -28 -12 -20 -7 5 -40 12 -73
15 -33 3 -61 6 -63 6 -2 1 -9 16 -17 34 l-14 32 -1 -35z"/>
<path d="M7522 3650 c0 -14 4 -38 8 -55 l8 -30 0 30 c0 17 -4 41 -8 55 l-8 25
0 -25z"/>
<path d="M8105 3630 c4 -25 10 -49 15 -53 4 -4 4 13 0 38 -4 25 -10 49 -15 53
-4 4 -4 -13 0 -38z"/>
<path d="M8681 3667 c-2 -19 22 -97 29 -97 5 0 4 15 -2 33 -16 48 -27 73 -27
64z"/>
<path d="M9264 3648 c9 -38 25 -78 30 -78 7 0 -21 90 -30 98 -4 4 -4 -5 0 -20z"/>
<path d="M6363 3620 c0 -25 2 -35 4 -22 2 12 2 32 0 45 -2 12 -4 2 -4 -23z"/>
<path d="M6943 3620 c0 -25 2 -35 4 -22 2 12 2 32 0 45 -2 12 -4 2 -4 -23z"/>
<path d="M8126 3500 c3 -25 10 -49 15 -55 11 -11 1 48 -13 80 -5 13 -6 4 -2
-25z"/>
<path d="M8715 3508 c10 -44 25 -82 30 -77 5 6 -25 109 -32 109 -2 0 -1 -15 2
-32z"/>
<path d="M9304 3515 c10 -40 26 -78 31 -73 6 6 -25 98 -32 98 -3 0 -2 -11 1
-25z"/>
<path d="M6351 3514 c0 -11 3 -14 6 -6 3 7 2 16 -1 19 -3 4 -6 -2 -5 -13z"/>
<path d="M6940 3504 c0 -16 5 -36 10 -44 6 -10 7 -2 3 25 -7 49 -13 58 -13 19z"/>
<path d="M7542 3465 c0 -16 2 -22 5 -12 2 9 2 23 0 30 -3 6 -5 -1 -5 -18z"/>
<path d="M6351 3464 c0 -11 3 -14 6 -6 3 7 2 16 -1 19 -3 4 -6 -2 -5 -13z"/>
<path d="M8746 3385 c13 -54 25 -73 18 -30 -3 22 -10 45 -15 50 -7 7 -8 0 -3
-20z"/>
<path d="M6342 3375 c0 -16 2 -22 5 -12 2 9 2 23 0 30 -3 6 -5 -1 -5 -18z"/>
<path d="M8146 3365 c10 -59 26 -80 18 -25 -3 25 -10 50 -16 55 -6 7 -7 -4 -2
-30z"/>
<path d="M9342 3395 c3 -5 11 -29 17 -52 7 -24 16 -43 20 -43 10 0 -20 84 -33
97 -5 4 -7 4 -4 -2z"/>
<path d="M6942 3365 c0 -16 3 -39 8 -50 l9 -20 -1 20 c0 11 -4 34 -8 50 l-8
30 0 -30z"/>
<path d="M1304 3326 c-121 -85 -185 -121 -245 -141 -98 -32 -116 -52 -81 -94
18 -23 63 -29 120 -17 60 14 32 -39 -33 -62 -30 -10 -30 -10 13 -11 50 -1 100
29 172 104 66 68 117 107 153 115 l32 8 -33 13 c-36 15 -38 34 -2 34 39 0 60
-43 75 -149 14 -101 31 -136 67 -136 10 0 18 -4 18 -8 0 -13 -24 -39 -40 -45
-12 -4 -12 -6 3 -12 33 -14 66 5 144 80 79 77 100 87 148 69 28 -10 8 11 -29
30 -26 13 -27 16 -12 22 37 14 81 -21 124 -98 34 -61 38 -75 26 -84 -17 -14
-8 -24 23 -24 91 0 81 175 -15 248 -31 24 -44 27 -111 27 -68 0 -83 -4 -148
-37 -40 -21 -79 -38 -87 -38 -16 0 -25 26 -46 133 -11 57 -47 113 -72 114 -7
0 -29 4 -49 8 -32 6 -43 1 -115 -49z m203 -88 c-3 -7 -5 -2 -5 12 0 14 2 19 5
13 2 -7 2 -19 0 -25z m33 -123 c0 -5 -5 -3 -10 5 -5 8 -10 20 -10 25 0 6 5 3
10 -5 5 -8 10 -19 10 -25z m435 -55 c5 -35 4 -33 -22 30 -12 31 -12 33 1 20 9
-8 18 -31 21 -50z"/>
<path d="M7552 3330 c0 -19 2 -27 5 -17 2 9 2 25 0 35 -3 9 -5 1 -5 -18z"/>
<path d="M9391 3260 c-2 -28 19 -88 36 -101 15 -13 15 -12 4 6 -6 11 -18 40
-25 65 -8 25 -14 38 -15 30z"/>
<path d="M6331 3244 c0 -11 3 -14 6 -6 3 7 2 16 -1 19 -3 4 -6 -2 -5 -13z"/>
<path d="M6947 3253 c-10 -10 -8 -76 3 -93 7 -11 10 2 10 43 0 58 -1 62 -13
50z"/>
<path d="M7557 3213 c3 -26 9 -52 13 -56 4 -5 5 13 3 40 -3 26 -9 52 -13 56
-4 5 -5 -13 -3 -40z"/>
<path d="M8175 3215 c3 -27 9 -53 14 -58 6 -6 6 6 1 29 -15 71 -19 80 -15 29z"/>
<path d="M8781 3250 c-1 -23 19 -89 28 -95 5 -3 3 16 -5 43 -19 62 -22 70 -23
52z"/>
<path d="M6332 3190 c0 -14 2 -19 5 -12 2 6 2 18 0 25 -3 6 -5 1 -5 -13z"/>
<path d="M6948 3114 c-13 -12 -9 -79 5 -97 10 -15 12 -10 9 30 -4 68 -6 76
-14 67z"/>
<path d="M7571 3074 c-1 -38 4 -55 16 -65 15 -12 16 -12 8 1 -5 8 -12 38 -16
65 l-6 50 -2 -51z"/>
<path d="M8195 3075 c3 -27 13 -56 22 -65 11 -10 13 -11 8 -1 -4 7 -14 37 -21
65 l-13 51 4 -50z"/>
<path d="M8810 3115 c0 -29 25 -105 36 -109 10 -4 11 -1 4 12 -5 9 -14 36 -20
60 -6 23 -13 42 -15 42 -3 0 -5 -2 -5 -5z"/>
<path d="M9431 3113 c3 -28 36 -107 47 -111 8 -2 5 12 -8 43 -11 26 -20 53
-20 61 0 8 -4 14 -10 14 -5 0 -10 -3 -9 -7z"/>
<path d="M6321 3063 c0 -28 2 -54 7 -57 4 -2 6 14 4 37 -5 68 -10 76 -11 20z"/>
</g>
</svg>
