<svg width="26" height="26" viewBox="0 0 26 26" fill="none" xmlns="http://www.w3.org/2000/svg">
<path fill-rule="evenodd" clip-rule="evenodd" d="M4.06201 4.87501L21.937 4.875C22.3857 4.875 22.7495 5.23877 22.7495 5.6875C22.7495 6.13623 22.3857 6.5 21.937 6.5L4.06201 6.50001C3.61328 6.50001 3.24951 6.13624 3.24951 5.68751C3.24951 5.23877 3.61328 4.87501 4.06201 4.87501Z" fill="#72249C"/>
<path fill-rule="evenodd" clip-rule="evenodd" d="M10.5625 9.75C11.0112 9.75 11.375 10.1138 11.375 10.5625V17.0625C11.375 17.5112 11.0112 17.875 10.5625 17.875C10.1138 17.875 9.75 17.5112 9.75 17.0625V10.5625C9.75 10.1138 10.1138 9.75 10.5625 9.75Z" fill="#72249C"/>
<path fill-rule="evenodd" clip-rule="evenodd" d="M15.4375 9.75C15.8862 9.75 16.25 10.1138 16.25 10.5625V17.0625C16.25 17.5112 15.8862 17.875 15.4375 17.875C14.9888 17.875 14.625 17.5112 14.625 17.0625V10.5625C14.625 10.1138 14.9888 9.75 15.4375 9.75Z" fill="#72249C"/>
<path fill-rule="evenodd" clip-rule="evenodd" d="M8.125 2.4375C8.125 1.98877 8.48877 1.625 8.9375 1.625H17.0625C17.5112 1.625 17.875 1.98877 17.875 2.4375C17.875 2.88623 17.5112 3.25 17.0625 3.25H8.9375C8.48877 3.25 8.125 2.88623 8.125 2.4375Z" fill="#72249C"/>
<path fill-rule="evenodd" clip-rule="evenodd" d="M5.68701 4.875C6.13574 4.875 6.49951 5.23877 6.49951 5.6875V21.125H19.4995V5.68751C19.4995 5.23877 19.8633 4.87501 20.312 4.87501C20.7607 4.87501 21.1245 5.23877 21.1245 5.68751V21.125C21.1245 21.556 20.9533 21.9693 20.6486 22.274C20.3438 22.5788 19.9305 22.75 19.4995 22.75H6.49951C6.06854 22.75 5.65521 22.5788 5.35046 22.274C5.04572 21.9693 4.87451 21.556 4.87451 21.125V5.6875C4.87451 5.23877 5.23828 4.875 5.68701 4.875Z" fill="#72249C"/>
</svg>
