<svg width="26" height="26" viewBox="0 0 26 26" fill="none" xmlns="http://www.w3.org/2000/svg">
<path fill-rule="evenodd" clip-rule="evenodd" d="M15.9135 3.25C16.2182 2.94525 16.6315 2.77405 17.0625 2.77405C17.4935 2.77405 17.9068 2.94525 18.2115 3.25L17.6684 3.79319L18.2115 3.25L22.75 7.78845C23.0547 8.0932 23.226 8.50652 23.226 8.9375C23.226 9.36847 23.0547 9.7818 22.75 10.0865L10.3245 22.512C10.1722 22.6644 9.96549 22.75 9.75 22.75H4.875C4.44402 22.75 4.0307 22.5788 3.72595 22.274C3.4212 21.9693 3.25 21.556 3.25 21.125V16.5865C3.25 16.3731 3.29203 16.1618 3.3737 15.9647C3.45536 15.7675 3.57506 15.5884 3.72595 15.4375L15.9135 3.25ZM21.601 8.9375L17.0625 4.39905L4.875 16.5865L4.30048 16.012L4.875 16.5865L4.875 21.125H9.41345L21.601 8.9375Z" fill="#72249C"/>
<path fill-rule="evenodd" clip-rule="evenodd" d="M13.238 5.92548C13.5553 5.60817 14.0697 5.60817 14.387 5.92548L20.0745 11.613C20.3918 11.9303 20.3918 12.4447 20.0745 12.762C19.7572 13.0793 19.2428 13.0793 18.9255 12.762L13.238 7.07452C12.9207 6.75722 12.9207 6.24278 13.238 5.92548Z" fill="#72249C"/>
</svg>
