<svg width="16" height="16" viewBox="0 0 16 16" fill="none" xmlns="http://www.w3.org/2000/svg">
<path fill-rule="evenodd" clip-rule="evenodd" d="M0.666748 8.00001C1.82008 5.32399 4.66675 3.42822 8.00008 3.42822C11.3334 3.42822 14.1801 5.32399 15.3334 8.00001C14.1801 10.676 11.3334 12.5718 8.00008 12.5718C4.66675 12.5718 1.82008 10.676 0.666748 8.00001ZM13.8801 8.00001C12.7801 5.94575 10.5267 4.64737 8.00008 4.64737C5.47341 4.64737 3.22008 5.94575 2.12008 8.00001C3.22008 10.0543 5.46675 11.3527 8.00008 11.3527C10.5334 11.3527 12.7801 10.0543 13.8801 8.00001ZM8.00008 6.47608C8.92008 6.47608 9.66675 7.1588 9.66675 8.00001C9.66675 8.84122 8.92008 9.52394 8.00008 9.52394C7.08008 9.52394 6.33342 8.84122 6.33342 8.00001C6.33342 7.1588 7.08008 6.47608 8.00008 6.47608ZM5.00008 8.00001C5.00008 6.48827 6.34675 5.25694 8.00008 5.25694C9.65341 5.25694 11.0001 6.48827 11.0001 8.00001C11.0001 9.51174 9.65341 10.7431 8.00008 10.7431C6.34675 10.7431 5.00008 9.51174 5.00008 8.00001Z" fill="#767676"/>
</svg>
